<?xml version="1.0" encoding="UTF-8"?>
<svg id="Layer_3" data-name="Layer 3" xmlns="http://www.w3.org/2000/svg" viewBox="0 0 144 144">
  <path d="M89.55,53.42h-43.35c-3.42,0-6.19,2.77-6.19,6.19v24.77c0,3.42,2.77,6.19,6.19,6.19h43.35c3.42,0,6.19-2.77,6.19-6.19v-24.77c0-3.42-2.77-6.19-6.19-6.19ZM91.61,84.39c0,1.14-.92,2.06-2.06,2.06h-43.35c-1.14,0-2.06-.92-2.06-2.06v-24.77c0-1.14.92-2.06,2.06-2.06h43.35c1.14,0,2.06.92,2.06,2.06v24.77ZM104,63.74v16.52c0,1.14-.92,2.06-2.06,2.06s-2.06-.92-2.06-2.06v-16.52c0-1.14.92-2.06,2.06-2.06s2.06.92,2.06,2.06ZM73.76,70.91c.38.61.41,1.37.09,2.01l-4.13,8.26c-.51,1.02-1.75,1.43-2.77.92-1.02-.51-1.43-1.75-.92-2.77l2.64-5.27h-4.92c-1.14,0-2.07-.92-2.07-2.06,0-.32.07-.64.22-.93l4.13-8.26c.51-1.02,1.75-1.43,2.77-.92,1.02.51,1.43,1.75.92,2.77h0l-2.64,5.27h4.92c.72,0,1.38.37,1.76.98Z" fill="#fff"/>
</svg>