<?xml version="1.0" encoding="UTF-8"?>
<svg id="Layer_3" data-name="Layer 3" xmlns="http://www.w3.org/2000/svg" viewBox="0 0 144 144">
  <path d="M91.14,53.42h-43.35c-3.42,0-6.19,2.77-6.19,6.19v24.77c0,3.42,2.77,6.19,6.19,6.19h43.35c3.42,0,6.19-2.77,6.19-6.19v-24.77c0-3.42-2.77-6.19-6.19-6.19ZM93.2,84.39c0,1.14-.92,2.06-2.06,2.06h-43.35c-1.14,0-2.06-.92-2.06-2.06v-24.77c0-1.14.92-2.06,2.06-2.06h43.35c1.14,0,2.06.92,2.06,2.06v24.77ZM66.36,63.74v16.52c0,1.14-.92,2.06-2.06,2.06s-2.06-.92-2.06-2.06v-16.52c0-1.14.92-2.06,2.06-2.06s2.06.92,2.06,2.06ZM56.04,63.74v16.52c0,1.14-.92,2.06-2.06,2.06s-2.06-.92-2.06-2.06v-16.52c0-1.14.92-2.06,2.06-2.06s2.06.92,2.06,2.06ZM105.59,63.74v16.52c0,1.14-.92,2.06-2.06,2.06s-2.06-.92-2.06-2.06v-16.52c0-1.14.92-2.06,2.06-2.06s2.06.92,2.06,2.06Z" fill="#fff"/>
</svg>