<?xml version="1.0" encoding="UTF-8"?>
<svg id="Layer_3" data-name="Layer 3" xmlns="http://www.w3.org/2000/svg" viewBox="0 0 144 144">
  <path d="M104.92,40.67c-.89-.89-2.34-.89-3.23,0,0,0,0,0,0,0l-14.97,14.97-1.53-1.54c-3.57-3.56-9.36-3.56-12.93,0l-6.66,6.66-1.81-1.81c-.89-.89-2.34-.89-3.23,0-.89.89-.89,2.34,0,3.23l1.81,1.81-6.66,6.66c-3.57,3.57-3.57,9.36,0,12.93,0,0,0,0,0,0l1.54,1.53-14.97,14.97c-.89.89-.89,2.34,0,3.23.89.89,2.34.89,3.23,0h0l14.97-14.97,1.53,1.54c3.57,3.57,9.36,3.57,12.93,0h0s6.66-6.66,6.66-6.66l1.81,1.81c.89.89,2.34.89,3.23,0s.89-2.34,0-3.23l-1.81-1.81,6.66-6.66c3.57-3.57,3.57-9.36,0-12.93,0,0,0,0,0,0l-1.54-1.53,14.97-14.97c.89-.89.89-2.34,0-3.23,0,0,0,0,0,0ZM71.7,86.67c-1.78,1.78-4.68,1.78-6.46,0l-6.3-6.31c-1.78-1.78-1.78-4.68,0-6.46l6.66-6.66,12.77,12.77-6.66,6.67ZM88.25,70.11l-6.66,6.65-12.77-12.77,6.66-6.66c1.78-1.78,4.68-1.78,6.46,0l6.3,6.29c1.79,1.78,1.8,4.68.02,6.46,0,0-.01.01-.02.02h0ZM62.32,45.43c-.47-1.17.09-2.51,1.27-2.98s2.51.09,2.98,1.27l2.29,5.71c.47,1.17-.09,2.51-1.27,2.98s-2.51-.09-2.98-1.27l-2.29-5.71ZM44.04,62c.47-1.17,1.8-1.74,2.97-1.27,0,0,0,0,0,0l5.71,2.29c1.17.47,1.74,1.81,1.27,2.98s-1.81,1.74-2.98,1.27l-5.71-2.29c-1.17-.47-1.74-1.8-1.27-2.97,0,0,0,0,0,0ZM103.14,82c-.47,1.17-1.8,1.74-2.97,1.27,0,0,0,0,0,0l-5.71-2.29c-1.17-.47-1.75-1.81-1.27-2.98.47-1.17,1.81-1.75,2.98-1.27l5.71,2.29c1.17.47,1.74,1.8,1.27,2.97,0,0,0,0,0,0ZM84.85,98.59c.47,1.17-.1,2.5-1.27,2.97s-2.5-.1-2.97-1.27l-2.29-5.71c-.47-1.17.09-2.51,1.27-2.98s2.51.09,2.98,1.27l2.29,5.73Z" fill="#fff"/>
</svg>