<?xml version="1.0" encoding="UTF-8"?>
<svg id="Layer_3" data-name="Layer 3" xmlns="http://www.w3.org/2000/svg" viewBox="0 0 144 144">
  <path d="M78.19,74.95c-.89-.89-2.34-.89-3.23,0h0s-5.24,5.24-5.24,5.24l-5.91-5.91,5.24-5.24c.89-.89.89-2.34,0-3.23s-2.34-.89-3.23,0l-5.24,5.24-5.24-5.24c-.89-.89-2.34-.89-3.23,0s-.89,2.34,0,3.23l1.81,1.81-6.66,6.66c-3.57,3.57-3.57,9.36,0,12.93,0,0,0,0,0,0l1.54,1.53-8.12,8.11c-.89.89-.89,2.34,0,3.23.89.89,2.34.89,3.23,0h0l8.11-8.12,1.53,1.54c3.57,3.57,9.36,3.57,12.93,0,0,0,0,0,0,0l6.66-6.66,1.81,1.81c.89.89,2.34.89,3.23,0s.89-2.34,0-3.23l-5.24-5.24,5.24-5.24c.89-.89.89-2.34,0-3.23h0ZM63.25,93.52c-1.78,1.78-4.68,1.78-6.46,0l-6.3-6.31c-1.78-1.78-1.78-4.68,0-6.46l6.66-6.66,12.77,12.77-6.66,6.67ZM103.33,40.67c-.89-.89-2.34-.89-3.23,0,0,0,0,0,0,0l-8.11,8.12-1.53-1.54c-3.57-3.56-9.36-3.56-12.93,0l-6.66,6.66-1.81-1.81c-.89-.89-2.34-.89-3.23,0s-.89,2.34,0,3.23l22.86,22.86c.89.89,2.34.89,3.23,0s.89-2.34,0-3.23l-1.81-1.81,6.66-6.66c3.57-3.57,3.57-9.36,0-12.93,0,0,0,0,0,0l-1.54-1.53,8.12-8.11c.89-.89.89-2.34,0-3.23,0,0,0,0,0,0ZM93.52,63.24l-6.66,6.67-12.77-12.77,6.66-6.66c1.78-1.78,4.68-1.78,6.46,0l6.3,6.29c1.79,1.78,1.8,4.68.02,6.46,0,0-.01.01-.02.02h0Z" fill="#fff"/>
</svg>