<?xml version="1.0" encoding="UTF-8"?>
<svg id="Layer_3" data-name="Layer 3" xmlns="http://www.w3.org/2000/svg" viewBox="0 0 144 144">
  <path d="M69.54,44.92v-2.46c0-1.36,1.1-2.46,2.46-2.46s2.46,1.1,2.46,2.46v2.46c0,1.36-1.1,2.46-2.46,2.46s-2.46-1.1-2.46-2.46ZM91.69,72c0,10.88-8.82,19.69-19.69,19.69s-19.69-8.82-19.69-19.69,8.82-19.69,19.69-19.69c10.87.01,19.68,8.82,19.69,19.69ZM86.77,72c0-8.16-6.61-14.77-14.77-14.77s-14.77,6.61-14.77,14.77,6.61,14.77,14.77,14.77c8.15,0,14.76-6.62,14.77-14.77ZM50.57,54.05c.96.96,2.52.96,3.48,0s.96-2.52,0-3.48l-2.46-2.46c-.96-.96-2.52-.96-3.48,0-.96.96-.96,2.52,0,3.48l2.46,2.46ZM50.57,89.95l-2.46,2.46c-.96.96-.96,2.52,0,3.48s2.52.96,3.48,0l2.46-2.46c.96-.96.96-2.52,0-3.48-.96-.96-2.52-.96-3.48,0ZM91.69,54.77c.65,0,1.28-.26,1.74-.72l2.46-2.46c.96-.96.96-2.52,0-3.48s-2.52-.96-3.48,0h0l-2.46,2.46c-.96.96-.96,2.52,0,3.48.46.46,1.09.72,1.74.72ZM93.43,89.95c-.96-.96-2.52-.96-3.48,0s-.96,2.52,0,3.48l2.46,2.46c.96.96,2.52.96,3.48,0s.96-2.52,0-3.48h0l-2.46-2.46ZM44.92,69.54h-2.46c-1.36,0-2.46,1.1-2.46,2.46s1.1,2.46,2.46,2.46h2.46c1.36,0,2.46-1.1,2.46-2.46s-1.1-2.46-2.46-2.46ZM72,96.62c-1.36,0-2.46,1.1-2.46,2.46v2.46c0,1.36,1.1,2.46,2.46,2.46s2.46-1.1,2.46-2.46v-2.46c0-1.36-1.1-2.46-2.46-2.46ZM101.54,69.54h-2.46c-1.36,0-2.46,1.1-2.46,2.46s1.1,2.46,2.46,2.46h2.46c1.36,0,2.46-1.1,2.46-2.46s-1.1-2.46-2.46-2.46Z" fill="#fff"/>
</svg>