<?xml version="1.0" encoding="UTF-8"?>
<svg id="Layer_3" data-name="Layer 3" xmlns="http://www.w3.org/2000/svg" viewBox="0 0 144 144">
  <g transform="translate(72,72) scale(1.7) translate(-72,-72)">
    <g>
      <path d="M72,47.38c1.36,0,2.46-1.1,2.46-2.46v-2.46c0-1.36-1.1-2.46-2.46-2.46s-2.46,1.1-2.46,2.46v2.46c0,1.36,1.1,2.46,2.46,2.46Z" fill="#fff"/>
      <path d="M99.08,74.46h2.46c1.36,0,2.46-1.1,2.46-2.46s-1.1-2.46-2.46-2.46h-2.46c-1.36,0-2.46,1.1-2.46,2.46s1.1,2.46,2.46,2.46Z" fill="#fff"/>
      <path d="M91.69,54.77c.65,0,1.28-.26,1.74-.72l2.46-2.46c.96-.96.96-2.52,0-3.48s-2.52-.96-3.48,0l-2.46,2.46c-.96.96-.96,2.52,0,3.48.46.46,1.09.72,1.74.72Z" fill="#fff"/>
      <path d="M75.77,91.32v-.55h-3c-1.62,0-3.08-.97-3.7-2.47-.25-.61-.34-1.26-.28-1.89-6.61-1.47-11.56-7.36-11.56-14.41,0-8.16,6.61-14.77,14.77-14.77,7.06,0,12.95,4.95,14.41,11.57.12-.01.24-.04.36-.04,1.06,0,2.08.42,2.83,1.17l2.09,2.09s0-.02,0-.03c-.01-10.87-8.82-19.68-19.69-19.69-10.88,0-19.69,8.82-19.69,19.69s8.82,19.69,19.69,19.69c1.29,0,2.55-.13,3.77-.37Z" fill="#fff"/>
      <path d="M50.57,54.05c.96.96,2.52.96,3.48,0,.96-.96.96-2.52,0-3.48l-2.46-2.46c-.96-.96-2.52-.96-3.48,0s-.96,2.52,0,3.48l2.46,2.46Z" fill="#fff"/>
      <path d="M72,96.62c-1.36,0-2.46,1.1-2.46,2.46v2.46c0,1.36,1.1,2.46,2.46,2.46s2.46-1.1,2.46-2.46v-2.46c0-1.36-1.1-2.46-2.46-2.46Z" fill="#fff"/>
      <path d="M44.92,69.54h-2.46c-1.36,0-2.46,1.1-2.46,2.46s1.1,2.46,2.46,2.46h2.46c1.36,0,2.46-1.1,2.46-2.46s-1.1-2.46-2.46-2.46Z" fill="#fff"/>
      <path d="M50.57,89.95l-2.46,2.46c-.96.96-.96,2.52,0,3.48s2.52.96,3.48,0l2.46-2.46c.96-.96.96-2.52,0-3.48-.96-.96-2.52-.96-3.48,0Z" fill="#fff"/>
    </g>
    <path d="M72.77,86.77l14-14,14,14h-7v12.83c0,.64-.52,1.17-1.17,1.17h-11.67c-.64,0-1.17-.52-1.17-1.17v-12.83h-7Z" fill="none" stroke="#fff" stroke-linecap="round" stroke-linejoin="round" stroke-width="5"/>
  </g>
</svg>