<?xml version="1.0" encoding="UTF-8"?>
<svg id="Layer_3" data-name="Layer 3" xmlns="http://www.w3.org/2000/svg" viewBox="0 0 144 144">
  <g transform="translate(72,72) scale(1.7) translate(-72,-72)">
    <path d="M98.21,51.08h-8.53l-4.19-6.29c-.46-.68-1.22-1.09-2.05-1.1h-19.69c-.82,0-1.59.41-2.05,1.1l-4.2,6.29h-8.53c-4.08,0-7.38,3.31-7.38,7.38v34.46c0,4.08,3.31,7.38,7.38,7.38h49.23c4.08,0,7.38-3.31,7.38-7.38v-34.46c0-4.08-3.31-7.38-7.38-7.38ZM100.67,92.92c0,1.36-1.1,2.46-2.46,2.46h-49.23c-1.36,0-2.46-1.1-2.46-2.46v-34.46c0-1.36,1.1-2.46,2.46-2.46h9.85c.82,0,1.59-.41,2.05-1.1l4.19-6.29h17.06l4.19,6.29c.46.68,1.23,1.1,2.05,1.1h9.85c1.36,0,2.46,1.1,2.46,2.46v34.46ZM88.36,63.38v7.38c0,1.36-1.1,2.46-2.46,2.46h-7.38c-1.36,0-2.46-1.1-2.46-2.46s1.1-2.46,2.46-2.46h1.58c-3.5-3.07-8.68-3.28-12.41-.5-1.09.82-2.63.6-3.45-.49-.82-1.09-.6-2.63.49-3.45,5.64-4.2,13.45-3.86,18.71.81v-1.3c0-1.36,1.1-2.46,2.46-2.46s2.46,1.1,2.46,2.46ZM82.94,81.6c.82,1.09.6,2.63-.49,3.45-5.64,4.2-13.45,3.86-18.71-.81v1.3c0,1.36-1.1,2.46-2.46,2.46s-2.46-1.1-2.46-2.46v-7.38c0-1.36,1.1-2.46,2.46-2.46h7.38c1.36,0,2.46,1.1,2.46,2.46s-1.1,2.46-2.46,2.46h-1.58c3.5,3.07,8.68,3.28,12.41.5,1.09-.82,2.63-.6,3.45.49Z" fill="#fff"/>
  </g>
</svg>