<?xml version="1.0" encoding="UTF-8"?>
<svg id="Layer_3" data-name="Layer 3" xmlns="http://www.w3.org/2000/svg" viewBox="0 0 144 144">
  <line x1="72" y1="92.15" x2="72" y2="104" fill="none" stroke="#fff" stroke-linecap="round" stroke-linejoin="round" stroke-width="6"/>
  <line x1="48.3" y1="47.11" x2="95.7" y2="99.26" fill="none" stroke="#fff" stroke-linecap="round" stroke-linejoin="round" stroke-width="6"/>
  <path d="M85.13,87.63c-9.29,7.25-22.69,5.6-29.94-3.68-2.93-3.75-4.52-8.37-4.52-13.13" fill="none" stroke="#fff" stroke-linecap="round" stroke-linejoin="round" stroke-width="6"/>
  <path d="M93.33,70.81c0,3.25-.73,6.45-2.16,9.37" fill="none" stroke="#fff" stroke-linecap="round" stroke-linejoin="round" stroke-width="6"/>
  <path d="M78.72,80.59c-1.98,1.36-4.32,2.08-6.72,2.07h0c-6.55,0-11.85-5.31-11.85-11.85v-10.67" fill="none" stroke="#fff" stroke-linecap="round" stroke-linejoin="round" stroke-width="6"/>
  <path d="M61.13,47.13c1.88-4.33,6.15-7.13,10.87-7.13h0c6.55,0,11.85,5.31,11.85,11.85v18.96c0,.41-.02.83-.07,1.24" fill="none" stroke="#fff" stroke-linecap="round" stroke-linejoin="round" stroke-width="6"/>
</svg>