<?xml version="1.0" encoding="UTF-8"?>
<svg id="Layer_3" data-name="Layer 3" xmlns="http://www.w3.org/2000/svg" viewBox="0 0 144 144">
  <g>
    <path d="M76.97,91.23h7.35c2.03,0,3.68,1.65,3.68,3.68s-1.65,3.68-3.68,3.68h-7.35v-13.97h6.25c1.83,0,3.31,1.48,3.31,3.31s-1.48,3.31-3.31,3.31" fill="none" stroke="#fff" stroke-linecap="round" stroke-linejoin="round" stroke-width="4"/>
    <polyline points="56 84.61 59.49 98.58 64.15 89.27 68.81 98.58 72.3 84.61" fill="none" stroke="#fff" stroke-linecap="round" stroke-linejoin="round" stroke-width="4"/>
  </g>
  <path d="M65.44,60.08c0-6.31,5.12-11.43,11.43-11.43s11.43,5.12,11.43,11.43-5.12,11.43-11.43,11.43h-12.58c-4.42,0-8-3.59-7.99-8.01,0-4.42,3.59-8,8.01-7.99.66,0,1.33.08,1.97.25" fill="none" stroke="#fff" stroke-linecap="round" stroke-linejoin="round" stroke-width="6"/>
</svg>