<?xml version="1.0" encoding="UTF-8"?>
<svg id="Layer_3" data-name="Layer 3" xmlns="http://www.w3.org/2000/svg" viewBox="0 0 144 144">
  <g>
    <path d="M76.97,91.23h7.35c2.03,0,3.68,1.65,3.68,3.68s-1.65,3.68-3.68,3.68h-7.35v-13.97h6.25c1.83,0,3.31,1.48,3.31,3.31s-1.48,3.31-3.31,3.31" fill="none" stroke="#fff" stroke-linecap="round" stroke-linejoin="round" stroke-width="4"/>
    <polyline points="56 84.61 59.49 98.58 64.15 89.27 68.81 98.58 72.3 84.61" fill="none" stroke="#fff" stroke-linecap="round" stroke-linejoin="round" stroke-width="4"/>
  </g>
  <g>
    <line x1="71.92" y1="43.43" x2="71.92" y2="40" fill="none" stroke="#fff" stroke-linecap="round" stroke-linejoin="round" stroke-width="4"/>
    <circle cx="71.92" cy="56" r="8" fill="none" stroke="#fff" stroke-linecap="round" stroke-linejoin="round" stroke-width="4"/>
    <line x1="62.78" y1="46.86" x2="60.49" y2="44.57" fill="none" stroke="#fff" stroke-linecap="round" stroke-linejoin="round" stroke-width="4"/>
    <line x1="62.78" y1="65.14" x2="60.49" y2="67.43" fill="none" stroke="#fff" stroke-linecap="round" stroke-linejoin="round" stroke-width="4"/>
    <line x1="81.06" y1="46.86" x2="83.35" y2="44.57" fill="none" stroke="#fff" stroke-linecap="round" stroke-linejoin="round" stroke-width="4"/>
    <line x1="81.06" y1="65.14" x2="83.35" y2="67.43" fill="none" stroke="#fff" stroke-linecap="round" stroke-linejoin="round" stroke-width="4"/>
    <line x1="59.35" y1="56" x2="55.92" y2="56" fill="none" stroke="#fff" stroke-linecap="round" stroke-linejoin="round" stroke-width="4"/>
    <line x1="71.92" y1="68.57" x2="71.92" y2="72" fill="none" stroke="#fff" stroke-linecap="round" stroke-linejoin="round" stroke-width="4"/>
    <line x1="84.49" y1="56" x2="87.92" y2="56" fill="none" stroke="#fff" stroke-linecap="round" stroke-linejoin="round" stroke-width="4"/>
  </g>
</svg>