<?xml version="1.0" encoding="UTF-8"?>
<svg id="Layer_3" data-name="Layer 3" xmlns="http://www.w3.org/2000/svg" viewBox="0 0 144 144">
  <g>
    <path d="M76.97,91.23h7.35c2.03,0,3.68,1.65,3.68,3.68s-1.65,3.68-3.68,3.68h-7.35v-13.97h6.25c1.83,0,3.31,1.48,3.31,3.31s-1.48,3.31-3.31,3.31" fill="none" stroke="#fff" stroke-linecap="round" stroke-linejoin="round" stroke-width="4"/>
    <polyline points="56 84.61 59.49 98.58 64.15 89.27 68.81 98.58 72.3 84.61" fill="none" stroke="#fff" stroke-linecap="round" stroke-linejoin="round" stroke-width="4"/>
  </g>
  <g>
    <line x1="88.3" y1="65.7" x2="56.3" y2="65.7" fill="none" stroke="#fff" stroke-linecap="round" stroke-linejoin="round" stroke-width="4"/>
    <line x1="83.73" y1="71.42" x2="60.87" y2="71.42" fill="none" stroke="#fff" stroke-linecap="round" stroke-linejoin="round" stroke-width="4"/>
    <path d="M63.45,65.7c-1.25-4.89,1.7-9.87,6.59-11.12,4.89-1.25,9.87,1.7,11.12,6.59.38,1.49.38,3.05,0,4.54" fill="none" stroke="#fff" stroke-linecap="round" stroke-linejoin="round" stroke-width="4"/>
    <line x1="65.45" y1="48.56" x2="66.59" y2="50.84" fill="none" stroke="#fff" stroke-linecap="round" stroke-linejoin="round" stroke-width="4"/>
    <line x1="57.45" y1="56.56" x2="59.73" y2="57.7" fill="none" stroke="#fff" stroke-linecap="round" stroke-linejoin="round" stroke-width="4"/>
    <line x1="87.16" y1="56.56" x2="84.87" y2="57.7" fill="none" stroke="#fff" stroke-linecap="round" stroke-linejoin="round" stroke-width="4"/>
    <line x1="79.16" y1="48.56" x2="78.02" y2="50.84" fill="none" stroke="#fff" stroke-linecap="round" stroke-linejoin="round" stroke-width="4"/>
  </g>
</svg>