<?xml version="1.0" encoding="UTF-8"?>
<svg id="Layer_3" data-name="Layer 3" xmlns="http://www.w3.org/2000/svg" viewBox="0 0 144 144">
  <g>
    <path d="M76.97,91.23h7.35c2.03,0,3.68,1.65,3.68,3.68s-1.65,3.68-3.68,3.68h-7.35v-13.97h6.25c1.83,0,3.31,1.48,3.31,3.31s-1.48,3.31-3.31,3.31" fill="none" stroke="#fff" stroke-linecap="round" stroke-linejoin="round" stroke-width="4"/>
    <polyline points="56 84.61 59.49 98.58 64.15 89.27 68.81 98.58 72.3 84.61" fill="none" stroke="#fff" stroke-linecap="round" stroke-linejoin="round" stroke-width="4"/>
  </g>
  <g>
    <line x1="71.94" y1="61.13" x2="71.94" y2="45.13" fill="none" stroke="#fff" stroke-linecap="round" stroke-linejoin="round" stroke-width="3"/>
    <circle cx="71.94" cy="64.56" r="3.43" fill="none" stroke="#fff" stroke-linecap="round" stroke-linejoin="round" stroke-width="3"/>
    <path d="M67.36,45.13c0-2.53,2.05-4.57,4.57-4.57s4.57,2.05,4.57,4.57v12.86c3.63,2.53,4.52,7.51,1.99,11.14s-7.51,4.52-11.14,1.99c-3.63-2.53-4.52-7.51-1.99-11.14.54-.78,1.22-1.45,1.99-1.99v-12.86Z" fill="none" stroke="#fff" stroke-linecap="round" stroke-linejoin="round" stroke-width="3"/>
    <path d="M81.08,49.19c3.27-2.13,4.73,2.02,8-.11" fill="none" stroke="#fff" stroke-linecap="round" stroke-linejoin="round" stroke-width="3"/>
    <path d="M81.08,53.76c3.27-2.13,4.73,2.02,8-.11" fill="none" stroke="#fff" stroke-linecap="round" stroke-linejoin="round" stroke-width="3"/>
  </g>
</svg>